<svg id="visual" viewBox="0 0 900 600" width="900" height="600" xmlns="http://www.w3.org/2000/svg" xmlns:xlink="http://www.w3.org/1999/xlink" version="1.1"><g stroke-width="1" stroke-linejoin="bevel"><path d="M401 330L408 439L485 371Z" fill="#1d4e6b" stroke="#1d4e6b"></path><path d="M485 371L526 322L401 330Z" fill="#081a28" stroke="#081a28"></path><path d="M336 515L385 497L408 439Z" fill="#112e42" stroke="#112e42"></path><path d="M408 439L532 491L485 371Z" fill="#0c2435" stroke="#0c2435"></path><path d="M485 371L604 408L526 322Z" fill="#1d4e6b" stroke="#1d4e6b"></path><path d="M270 233L307 321L401 330Z" fill="#0c2435" stroke="#0c2435"></path><path d="M401 330L307 321L408 439Z" fill="#15384f" stroke="#15384f"></path><path d="M385 497L532 491L408 439Z" fill="#297ea6" stroke="#297ea6"></path><path d="M268 425L336 515L408 439Z" fill="#15384f" stroke="#15384f"></path><path d="M385 497L489 600L532 491Z" fill="#0c2435" stroke="#0c2435"></path><path d="M307 321L268 425L408 439Z" fill="#277297" stroke="#277297"></path><path d="M526 322L488 219L401 330Z" fill="#277297" stroke="#277297"></path><path d="M532 491L604 408L485 371Z" fill="#00101c" stroke="#00101c"></path><path d="M526 322L599 295L488 219Z" fill="#277297" stroke="#277297"></path><path d="M604 408L599 295L526 322Z" fill="#0c2435" stroke="#0c2435"></path><path d="M488 219L426 178L401 330Z" fill="#1d4e6b" stroke="#1d4e6b"></path><path d="M204 289L211 379L307 321Z" fill="#205a7a" stroke="#205a7a"></path><path d="M307 321L211 379L268 425Z" fill="#205a7a" stroke="#205a7a"></path><path d="M311 600L366 600L336 515Z" fill="#0c2435" stroke="#0c2435"></path><path d="M426 178L270 233L401 330Z" fill="#246688" stroke="#246688"></path><path d="M311 600L336 515L160 518Z" fill="#0c2435" stroke="#0c2435"></path><path d="M336 515L366 600L385 497Z" fill="#246688" stroke="#246688"></path><path d="M366 600L489 600L385 497Z" fill="#081a28" stroke="#081a28"></path><path d="M532 491L612 513L604 408Z" fill="#297ea6" stroke="#297ea6"></path><path d="M560 600L612 513L532 491Z" fill="#19435d" stroke="#19435d"></path><path d="M718 373L698 279L599 295Z" fill="#205a7a" stroke="#205a7a"></path><path d="M599 295L588 203L488 219Z" fill="#0c2435" stroke="#0c2435"></path><path d="M488 219L496 76L426 178Z" fill="#00101c" stroke="#00101c"></path><path d="M270 233L204 289L307 321Z" fill="#15384f" stroke="#15384f"></path><path d="M160 518L336 515L268 425Z" fill="#277297" stroke="#277297"></path><path d="M183 129L222 233L270 233Z" fill="#19435d" stroke="#19435d"></path><path d="M270 233L222 233L204 289Z" fill="#1d4e6b" stroke="#1d4e6b"></path><path d="M489 600L560 600L532 491Z" fill="#081a28" stroke="#081a28"></path><path d="M362 83L336 122L426 178Z" fill="#19435d" stroke="#19435d"></path><path d="M426 178L336 122L270 233Z" fill="#1d4e6b" stroke="#1d4e6b"></path><path d="M722 600L685 492L612 513Z" fill="#081a28" stroke="#081a28"></path><path d="M612 513L685 492L604 408Z" fill="#15384f" stroke="#15384f"></path><path d="M599 295L698 225L588 203Z" fill="#1d4e6b" stroke="#1d4e6b"></path><path d="M718 373L599 295L604 408Z" fill="#246688" stroke="#246688"></path><path d="M685 492L718 373L604 408Z" fill="#112e42" stroke="#112e42"></path><path d="M99 424L160 518L211 379Z" fill="#1d4e6b" stroke="#1d4e6b"></path><path d="M211 379L160 518L268 425Z" fill="#297ea6" stroke="#297ea6"></path><path d="M496 76L362 83L426 178Z" fill="#277297" stroke="#277297"></path><path d="M75 177L113 280L222 233Z" fill="#00101c" stroke="#00101c"></path><path d="M698 279L698 225L599 295Z" fill="#19435d" stroke="#19435d"></path><path d="M593 105L496 76L488 219Z" fill="#277297" stroke="#277297"></path><path d="M809 265L698 225L698 279Z" fill="#00101c" stroke="#00101c"></path><path d="M593 105L488 219L588 203Z" fill="#246688" stroke="#246688"></path><path d="M698 225L593 105L588 203Z" fill="#1d4e6b" stroke="#1d4e6b"></path><path d="M222 233L113 280L204 289Z" fill="#00101c" stroke="#00101c"></path><path d="M204 289L113 280L211 379Z" fill="#112e42" stroke="#112e42"></path><path d="M183 129L270 233L336 122Z" fill="#297ea6" stroke="#297ea6"></path><path d="M113 280L99 424L211 379Z" fill="#277297" stroke="#277297"></path><path d="M160 518L161 600L311 600Z" fill="#081a28" stroke="#081a28"></path><path d="M119 538L161 600L160 518Z" fill="#081a28" stroke="#081a28"></path><path d="M99 424L119 538L160 518Z" fill="#277297" stroke="#277297"></path><path d="M316 0L183 129L336 122Z" fill="#19435d" stroke="#19435d"></path><path d="M560 600L722 600L612 513Z" fill="#112e42" stroke="#112e42"></path><path d="M685 492L836 423L718 373Z" fill="#205a7a" stroke="#205a7a"></path><path d="M469 0L417 0L496 76Z" fill="#277297" stroke="#277297"></path><path d="M496 76L417 0L362 83Z" fill="#19435d" stroke="#19435d"></path><path d="M362 83L316 0L336 122Z" fill="#246688" stroke="#246688"></path><path d="M609 0L469 0L496 76Z" fill="#081a28" stroke="#081a28"></path><path d="M0 600L98 600L119 538Z" fill="#00101c" stroke="#00101c"></path><path d="M119 538L98 600L161 600Z" fill="#1d4e6b" stroke="#1d4e6b"></path><path d="M417 0L316 0L362 83Z" fill="#112e42" stroke="#112e42"></path><path d="M698 225L720 110L593 105Z" fill="#205a7a" stroke="#205a7a"></path><path d="M593 105L609 0L496 76Z" fill="#0c2435" stroke="#0c2435"></path><path d="M718 373L809 265L698 279Z" fill="#0c2435" stroke="#0c2435"></path><path d="M836 423L809 265L718 373Z" fill="#0c2435" stroke="#0c2435"></path><path d="M824 233L720 110L698 225Z" fill="#246688" stroke="#246688"></path><path d="M722 600L802 538L685 492Z" fill="#081a28" stroke="#081a28"></path><path d="M183 129L75 177L222 233Z" fill="#1d4e6b" stroke="#1d4e6b"></path><path d="M113 280L0 379L99 424Z" fill="#19435d" stroke="#19435d"></path><path d="M99 424L0 494L119 538Z" fill="#277297" stroke="#277297"></path><path d="M85 101L75 177L183 129Z" fill="#112e42" stroke="#112e42"></path><path d="M802 538L836 423L685 492Z" fill="#00101c" stroke="#00101c"></path><path d="M720 110L609 0L593 105Z" fill="#15384f" stroke="#15384f"></path><path d="M809 265L824 233L698 225Z" fill="#297ea6" stroke="#297ea6"></path><path d="M900 292L824 233L809 265Z" fill="#1d4e6b" stroke="#1d4e6b"></path><path d="M0 292L0 379L113 280Z" fill="#297ea6" stroke="#297ea6"></path><path d="M722 600L803 600L802 538Z" fill="#205a7a" stroke="#205a7a"></path><path d="M900 529L900 405L836 423Z" fill="#081a28" stroke="#081a28"></path><path d="M0 199L0 292L113 280Z" fill="#277297" stroke="#277297"></path><path d="M0 379L0 494L99 424Z" fill="#297ea6" stroke="#297ea6"></path><path d="M165 0L85 101L183 129Z" fill="#297ea6" stroke="#297ea6"></path><path d="M75 177L0 199L113 280Z" fill="#0c2435" stroke="#0c2435"></path><path d="M316 0L165 0L183 129Z" fill="#112e42" stroke="#112e42"></path><path d="M0 85L75 177L85 101Z" fill="#112e42" stroke="#112e42"></path><path d="M0 85L0 199L75 177Z" fill="#112e42" stroke="#112e42"></path><path d="M900 529L836 423L802 538Z" fill="#1d4e6b" stroke="#1d4e6b"></path><path d="M836 423L900 292L809 265Z" fill="#19435d" stroke="#19435d"></path><path d="M0 494L0 600L119 538Z" fill="#277297" stroke="#277297"></path><path d="M900 405L900 292L836 423Z" fill="#246688" stroke="#246688"></path><path d="M818 67L737 0L720 110Z" fill="#15384f" stroke="#15384f"></path><path d="M818 67L720 110L824 233Z" fill="#205a7a" stroke="#205a7a"></path><path d="M720 110L737 0L609 0Z" fill="#15384f" stroke="#15384f"></path><path d="M900 600L900 529L802 538Z" fill="#297ea6" stroke="#297ea6"></path><path d="M900 292L900 217L824 233Z" fill="#277297" stroke="#277297"></path><path d="M900 104L818 67L824 233Z" fill="#1d4e6b" stroke="#1d4e6b"></path><path d="M165 0L91 0L85 101Z" fill="#19435d" stroke="#19435d"></path><path d="M803 600L900 600L802 538Z" fill="#081a28" stroke="#081a28"></path><path d="M91 0L0 85L85 101Z" fill="#15384f" stroke="#15384f"></path><path d="M900 0L790 0L818 67Z" fill="#00101c" stroke="#00101c"></path><path d="M818 67L790 0L737 0Z" fill="#112e42" stroke="#112e42"></path><path d="M900 217L900 104L824 233Z" fill="#297ea6" stroke="#297ea6"></path><path d="M91 0L0 0L0 85Z" fill="#246688" stroke="#246688"></path><path d="M900 104L900 0L818 67Z" fill="#0c2435" stroke="#0c2435"></path></g></svg>