<svg id="visual" viewBox="0 0 900 600" width="900" height="600" xmlns="http://www.w3.org/2000/svg" xmlns:xlink="http://www.w3.org/1999/xlink" version="1.1"><path d="M0 193L21.5 194.2C43 195.3 86 197.7 128.8 202.7C171.7 207.7 214.3 215.3 257.2 206.8C300 198.3 343 173.7 385.8 176.7C428.7 179.7 471.3 210.3 514.2 215.5C557 220.7 600 200.3 642.8 191.8C685.7 183.3 728.3 186.7 771.2 188.7C814 190.7 857 191.3 878.5 191.7L900 192L900 0L878.5 0C857 0 814 0 771.2 0C728.3 0 685.7 0 642.8 0C600 0 557 0 514.2 0C471.3 0 428.7 0 385.8 0C343 0 300 0 257.2 0C214.3 0 171.7 0 128.8 0C86 0 43 0 21.5 0L0 0Z" fill="#0066ff"></path><path d="M0 124L21.5 133.2C43 142.3 86 160.7 128.8 165C171.7 169.3 214.3 159.7 257.2 154C300 148.3 343 146.7 385.8 148.7C428.7 150.7 471.3 156.3 514.2 163.2C557 170 600 178 642.8 182.8C685.7 187.7 728.3 189.3 771.2 182.7C814 176 857 161 878.5 153.5L900 146L900 0L878.5 0C857 0 814 0 771.2 0C728.3 0 685.7 0 642.8 0C600 0 557 0 514.2 0C471.3 0 428.7 0 385.8 0C343 0 300 0 257.2 0C214.3 0 171.7 0 128.8 0C86 0 43 0 21.5 0L0 0Z" fill="#007aff"></path><path d="M0 88L21.5 90.5C43 93 86 98 128.8 104.3C171.7 110.7 214.3 118.3 257.2 118.7C300 119 343 112 385.8 117C428.7 122 471.3 139 514.2 147.8C557 156.7 600 157.3 642.8 153C685.7 148.7 728.3 139.3 771.2 131.2C814 123 857 116 878.5 112.5L900 109L900 0L878.5 0C857 0 814 0 771.2 0C728.3 0 685.7 0 642.8 0C600 0 557 0 514.2 0C471.3 0 428.7 0 385.8 0C343 0 300 0 257.2 0C214.3 0 171.7 0 128.8 0C86 0 43 0 21.5 0L0 0Z" fill="#008cff"></path><path d="M0 100L21.5 98.2C43 96.3 86 92.7 128.8 90.7C171.7 88.7 214.3 88.3 257.2 84.5C300 80.7 343 73.3 385.8 74.7C428.7 76 471.3 86 514.2 87.3C557 88.7 600 81.3 642.8 77.5C685.7 73.7 728.3 73.3 771.2 74.8C814 76.3 857 79.7 878.5 81.3L900 83L900 0L878.5 0C857 0 814 0 771.2 0C728.3 0 685.7 0 642.8 0C600 0 557 0 514.2 0C471.3 0 428.7 0 385.8 0C343 0 300 0 257.2 0C214.3 0 171.7 0 128.8 0C86 0 43 0 21.5 0L0 0Z" fill="#2b9dfc"></path><path d="M0 68L21.5 62.8C43 57.7 86 47.3 128.8 43.8C171.7 40.3 214.3 43.7 257.2 44.5C300 45.3 343 43.7 385.8 42.3C428.7 41 471.3 40 514.2 38.5C557 37 600 35 642.8 39.7C685.7 44.3 728.3 55.7 771.2 62.5C814 69.3 857 71.7 878.5 72.8L900 74L900 0L878.5 0C857 0 814 0 771.2 0C728.3 0 685.7 0 642.8 0C600 0 557 0 514.2 0C471.3 0 428.7 0 385.8 0C343 0 300 0 257.2 0C214.3 0 171.7 0 128.8 0C86 0 43 0 21.5 0L0 0Z" fill="#4facf7"></path></svg>