<svg id="visual" viewBox="0 0 900 600" width="900" height="600" xmlns="http://www.w3.org/2000/svg" xmlns:xlink="http://www.w3.org/1999/xlink" version="1.1"><path d="M0 405L21.5 403.8C43 402.7 86 400.3 128.8 395.3C171.7 390.3 214.3 382.7 257.2 391.2C300 399.7 343 424.3 385.8 421.3C428.7 418.3 471.3 387.7 514.2 382.5C557 377.3 600 397.7 642.8 406.2C685.7 414.7 728.3 411.3 771.2 409.3C814 407.3 857 406.7 878.5 406.3L900 406L900 601L878.5 601C857 601 814 601 771.2 601C728.3 601 685.7 601 642.8 601C600 601 557 601 514.2 601C471.3 601 428.7 601 385.8 601C343 601 300 601 257.2 601C214.3 601 171.7 601 128.8 601C86 601 43 601 21.5 601L0 601Z" fill="#0066ff"></path><path d="M0 474L21.5 464.8C43 455.7 86 437.3 128.8 433C171.7 428.7 214.3 438.3 257.2 444C300 449.7 343 451.3 385.8 449.3C428.7 447.3 471.3 441.7 514.2 434.8C557 428 600 420 642.8 415.2C685.7 410.3 728.3 408.7 771.2 415.3C814 422 857 437 878.5 444.5L900 452L900 601L878.5 601C857 601 814 601 771.2 601C728.3 601 685.7 601 642.8 601C600 601 557 601 514.2 601C471.3 601 428.7 601 385.8 601C343 601 300 601 257.2 601C214.3 601 171.7 601 128.8 601C86 601 43 601 21.5 601L0 601Z" fill="#007aff"></path><path d="M0 510L21.5 507.5C43 505 86 500 128.8 493.7C171.7 487.3 214.3 479.7 257.2 479.3C300 479 343 486 385.8 481C428.7 476 471.3 459 514.2 450.2C557 441.3 600 440.7 642.8 445C685.7 449.3 728.3 458.7 771.2 466.8C814 475 857 482 878.5 485.5L900 489L900 601L878.5 601C857 601 814 601 771.2 601C728.3 601 685.7 601 642.8 601C600 601 557 601 514.2 601C471.3 601 428.7 601 385.8 601C343 601 300 601 257.2 601C214.3 601 171.7 601 128.8 601C86 601 43 601 21.5 601L0 601Z" fill="#008cff"></path><path d="M0 498L21.5 499.8C43 501.7 86 505.3 128.8 507.3C171.7 509.3 214.3 509.7 257.2 513.5C300 517.3 343 524.7 385.8 523.3C428.7 522 471.3 512 514.2 510.7C557 509.3 600 516.7 642.8 520.5C685.7 524.3 728.3 524.7 771.2 523.2C814 521.7 857 518.3 878.5 516.7L900 515L900 601L878.5 601C857 601 814 601 771.2 601C728.3 601 685.7 601 642.8 601C600 601 557 601 514.2 601C471.3 601 428.7 601 385.8 601C343 601 300 601 257.2 601C214.3 601 171.7 601 128.8 601C86 601 43 601 21.5 601L0 601Z" fill="#2b9dfc"></path><path d="M0 530L21.5 535.2C43 540.3 86 550.7 128.8 554.2C171.7 557.7 214.3 554.3 257.2 553.5C300 552.7 343 554.3 385.8 555.7C428.7 557 471.3 558 514.2 559.5C557 561 600 563 642.8 558.3C685.7 553.7 728.3 542.3 771.2 535.5C814 528.7 857 526.3 878.5 525.2L900 524L900 601L878.5 601C857 601 814 601 771.2 601C728.3 601 685.7 601 642.8 601C600 601 557 601 514.2 601C471.3 601 428.7 601 385.8 601C343 601 300 601 257.2 601C214.3 601 171.7 601 128.8 601C86 601 43 601 21.5 601L0 601Z" fill="#4facf7"></path></svg>